HIERARCHY
ROOT joint_Root
{
	OFFSET 0.0 0.0 0.0
	CHANNELS 6 Xposition Yposition Zposition Zrotation Xrotation Yrotation 
	JOINT Hips
	{
		OFFSET -17.1583 93.1646 452.98
		CHANNELS 6 Xposition Yposition Zposition Zrotation Xrotation Yrotation 
		JOINT Spine
		{
			OFFSET 15.7357 0.0 0.0
			CHANNELS 6 Xposition Yposition Zposition Zrotation Xrotation Yrotation 
			JOINT Chest
			{
				OFFSET 8.98455 -0.406207 0.0
				CHANNELS 6 Xposition Yposition Zposition Zrotation Xrotation Yrotation 
				JOINT Neck
				{
					OFFSET 16.3773 0.0 0.0
					CHANNELS 6 Xposition Yposition Zposition Zrotation Xrotation Yrotation 
					JOINT Head
					{
						OFFSET 6.45672 0.0 0.0
						CHANNELS 6 Xposition Yposition Zposition Zrotation Xrotation Yrotation 
						End Site
						{
							OFFSET 0.0 0.0 0.0
						}
					}
				}
				JOINT Shoulder_L
				{
					OFFSET 12.9942 -0.242716 4.98039
					CHANNELS 6 Xposition Yposition Zposition Zrotation Xrotation Yrotation 
					JOINT UpperArm_L
					{
						OFFSET 5.34809 0.0 0.0
						CHANNELS 6 Xposition Yposition Zposition Zrotation Xrotation Yrotation 
						JOINT LowerArm_L
						{
							OFFSET 24.3286 1.87007e-05 0.0
							CHANNELS 6 Xposition Yposition Zposition Zrotation Xrotation Yrotation 
							JOINT Hand_L
							{
								OFFSET 22.2916 0.0 0.0
								CHANNELS 6 Xposition Yposition Zposition Zrotation Xrotation Yrotation 
								End Site
								{
									OFFSET 0.0 0.0 0.0
								}
							}
						}
					}
				}
				JOINT Shoulder_R
				{
					OFFSET 12.9945 -0.242716 -4.98039
					CHANNELS 6 Xposition Yposition Zposition Zrotation Xrotation Yrotation 
					JOINT UpperArm_R
					{
						OFFSET -5.34813 0.0 0.0
						CHANNELS 6 Xposition Yposition Zposition Zrotation Xrotation Yrotation 
						JOINT LowerArm_R
						{
							OFFSET -24.3289 0.000322201 0.0
							CHANNELS 6 Xposition Yposition Zposition Zrotation Xrotation Yrotation 
							JOINT Hand_R
							{
								OFFSET -22.2915 -0.000108084 0.0
								CHANNELS 6 Xposition Yposition Zposition Zrotation Xrotation Yrotation 
								End Site
								{
									OFFSET 0.0 0.0 0.0
								}
							}
						}
					}
				}
			}
		}
		JOINT UpperLeg_L
		{
			OFFSET -2.19248 -6.46944 0.0
			CHANNELS 6 Xposition Yposition Zposition Zrotation Xrotation Yrotation 
			JOINT LowerLeg_L
			{
				OFFSET 39.0811 0.0 -1.23785e-05
				CHANNELS 6 Xposition Yposition Zposition Zrotation Xrotation Yrotation 
				JOINT Foot_L
				{
					OFFSET 40.9854 0.0 -1.26872e-05
					CHANNELS 6 Xposition Yposition Zposition Zrotation Xrotation Yrotation 
					JOINT Toes_L
					{
						OFFSET 11.7543 0.0 0.0
						CHANNELS 6 Xposition Yposition Zposition Zrotation Xrotation Yrotation 
						End Site
						{
							OFFSET 0.0 0.0 0.0
						}
					}
				}
			}
		}
		JOINT UpperLeg_R
		{
			OFFSET -2.19251 6.46944 0.0
			CHANNELS 6 Xposition Yposition Zposition Zrotation Xrotation Yrotation 
			JOINT LowerLeg_R
			{
				OFFSET -39.0811 -0.00228153 -0.0401928
				CHANNELS 6 Xposition Yposition Zposition Zrotation Xrotation Yrotation 
				JOINT Foot_R
				{
					OFFSET -40.9854 0.0 0.0
					CHANNELS 6 Xposition Yposition Zposition Zrotation Xrotation Yrotation 
					JOINT Toes_R
					{
						OFFSET -11.7543 0.0 0.0
						CHANNELS 6 Xposition Yposition Zposition Zrotation Xrotation Yrotation 
						End Site
						{
							OFFSET 0.0 0.0 0.0
						}
					}
				}
			}
		}
	}
}
MOTION
Frames:	9
Frame Time:	0.0333333
0.000000 0.000000 0.000000 0.000000 0.000000 -0.000000 186.836000 90.620500 -114.335000 84.920800 8.790160 0.262508 15.735700 0.000005 -0.000001 57.731600 87.089700 -54.510300 8.984550 -0.406207 -0.000000 -2.742670 -3.401520 6.363100 16.377300 -0.000001 -0.000001 -0.486111 1.571340 -2.953820 6.456720 -0.000001 -0.000000 7.242280 2.061030 -4.393060 12.994200 -0.242716 4.980390 -92.828000 9.020450 -72.511900 5.348090 -0.000007 -0.000001 -66.778000 -3.591000 3.054940 24.328600 0.000019 0.000005 1.774810 55.896500 -2.143280 22.291600 -0.000001 0.000005 -17.790600 4.778090 11.735300 12.994500 -0.242716 -4.980390 88.469800 4.590510 -71.542800 -5.348130 -0.000001 -0.000004 -65.759700 10.147200 -8.068630 -24.328900 0.000322 -0.000009 0.031510 0.092527 -18.941800 -22.291500 -0.000108 -0.000004 1.070650 5.285570 0.482402 -2.192480 -6.469440 -0.000000 -167.990000 3.405410 -14.219700 39.081100 -0.000007 -0.000012 0.324211 -0.176759 61.400500 40.985400 -0.000006 -0.000013 -16.278600 19.665600 -37.254600 11.754300 -0.000000 0.000003 0.001160 0.022580 -15.660800 -2.192510 6.469440 -0.000001 -172.443000 1.736730 168.705000 -39.081100 -0.002282 -0.040193 -0.006948 0.014437 35.342500 -40.985400 0.000008 0.000006 -6.140140 -5.255760 -78.228000 -11.754300 -0.000006 -0.000006 -0.004598 0.225191 -7.433280
0.000000 0.000000 0.000000 0.000000 0.000000 -0.000000 187.438000 92.266100 -111.613000 86.671000 6.728140 -0.085064 15.735700 0.000005 -0.000001 80.451400 87.388100 -78.285900 8.984550 -0.406207 -0.000000 -2.590990 -1.061870 4.307130 16.377300 -0.000001 -0.000001 -0.307496 1.329510 -1.950560 6.456720 -0.000001 -0.000000 6.962620 1.423310 -2.651680 12.994200 -0.242716 4.980390 -92.712500 8.044830 -71.296200 5.348090 -0.000007 -0.000001 -62.259200 -7.531080 7.282830 24.328600 0.000019 0.000005 4.564770 49.943500 -5.961360 22.291600 -0.000001 0.000005 -15.261400 4.973430 7.896700 12.994500 -0.242716 -4.980390 88.735700 3.946600 -72.223000 -5.348130 -0.000001 -0.000004 -65.107100 15.339600 -11.237600 -24.328900 0.000322 -0.000009 0.528653 1.045090 -26.861500 -22.291500 -0.000108 -0.000004 4.050550 5.298680 0.113281 -2.192480 -6.469440 -0.000000 -170.730000 1.114800 -17.577200 39.081100 -0.000007 -0.000012 0.293364 -0.180103 58.452900 40.985400 -0.000006 -0.000013 -15.091400 17.939600 -45.526800 11.754300 -0.000000 0.000003 0.001796 0.039618 -14.969700 -2.192510 6.469440 -0.000001 -174.525000 0.370380 173.243000 -39.081100 -0.002282 -0.040193 -0.007342 0.018835 29.473900 -40.985400 0.000008 0.000006 -6.170080 -5.124090 -74.316700 -11.754300 -0.000006 -0.000006 -0.001811 0.193997 -8.702910
0.000000 0.000000 0.000000 0.000000 0.000000 -0.000000 188.095000 93.688100 -109.047000 88.101000 4.367870 -0.727056 15.735700 0.000005 -0.000001 104.451000 87.361900 -103.195000 8.984550 -0.406207 -0.000000 -2.668950 1.201890 2.540530 16.377300 -0.000001 -0.000001 -0.066632 1.222900 -1.204440 6.456720 -0.000001 -0.000000 6.820770 0.720269 -1.060300 12.994200 -0.242716 4.980390 -92.519700 6.943690 -69.997000 5.348090 -0.000007 -0.000001 -57.706700 -9.877870 11.034900 24.328600 0.000019 0.000005 4.464910 34.750900 -7.805610 22.291600 -0.000001 0.000005 -13.436900 5.129150 4.439770 12.994500 -0.242716 -4.980390 89.069300 3.040170 -72.971100 -5.348130 -0.000001 -0.000004 -63.803300 18.297100 -14.594300 -24.328900 0.000322 -0.000009 0.243814 0.368913 -33.722400 -22.291500 -0.000108 -0.000004 6.588900 5.339250 -1.042310 -2.192480 -6.469440 -0.000000 -173.421000 -1.306700 -19.891500 39.081100 -0.000007 -0.000012 0.211389 -0.168178 51.494300 40.985400 -0.000006 -0.000013 -12.653700 16.248200 -51.776600 11.754300 -0.000000 0.000003 0.001756 0.038354 -15.020900 -2.192510 6.469440 -0.000001 -176.478000 -0.079398 176.718000 -39.081100 -0.002282 -0.040193 -0.001532 0.010737 24.286700 -40.985400 0.000008 0.000006 -5.433630 -4.162020 -69.743700 -11.754300 -0.000006 -0.000006 0.000880 0.151238 -10.439800
0.000000 0.000000 0.000000 0.000000 0.000000 -0.000000 188.683000 94.716000 -106.630000 88.892100 2.701520 -1.734270 15.735700 0.000005 -0.000001 121.190000 87.238900 -120.506000 8.984550 -0.406207 -0.000000 -3.060100 2.793970 1.443370 16.377300 -0.000001 -0.000001 0.056019 1.198980 -0.855012 6.456720 -0.000001 -0.000000 6.911240 0.097890 0.107632 12.994200 -0.242716 4.980390 -92.286800 5.981600 -69.032400 5.348090 -0.000007 -0.000001 -53.154400 -13.934800 14.377200 24.328600 0.000019 0.000005 3.413870 21.443900 -9.276890 22.291600 -0.000001 0.000005 -12.437700 5.137050 4.238450 12.994500 -0.242716 -4.980390 89.334700 2.268140 -73.649500 -5.348130 -0.000001 -0.000004 -61.791000 19.431400 -18.311600 -24.328900 0.000322 -0.000009 -1.374720 -1.690410 -39.061100 -22.291500 -0.000108 -0.000004 8.076650 5.395870 -2.801210 -2.192480 -6.469440 -0.000000 -175.377000 -3.006870 -21.337300 39.081100 -0.000007 -0.000012 0.132088 -0.154661 40.498600 40.985400 -0.000006 -0.000013 -10.890400 14.827600 -54.186900 11.754300 -0.000000 0.000003 0.001798 0.039683 -14.967000 -2.192510 6.469440 -0.000001 -178.062000 1.653460 179.195000 -39.081100 -0.002282 -0.040193 0.004668 -0.003734 19.827700 -40.985400 0.000008 0.000006 -4.609080 -1.584210 -65.564100 -11.754300 -0.000006 -0.000006 0.002253 0.109661 -12.126300
0.000000 0.000000 0.000000 0.000000 0.000000 -0.000000 189.158000 95.177600 -104.146000 88.808400 1.898240 -2.588890 15.735700 0.000005 -0.000001 130.775000 87.123200 -130.177000 8.984550 -0.406207 -0.000000 -3.431360 3.697310 1.305920 16.377300 -0.000001 -0.000001 -0.065388 1.104550 -0.743004 6.456720 -0.000001 -0.000000 7.153260 -0.380126 0.269285 12.994200 -0.242716 4.980390 -92.054200 5.227910 -68.512800 5.348090 -0.000007 -0.000001 -49.396800 -16.955500 17.430000 24.328600 0.000019 0.000005 2.584570 13.218400 -11.169800 22.291600 -0.000001 0.000005 -8.329470 5.080640 5.543970 12.994500 -0.242716 -4.980390 89.567200 1.511890 -74.026200 -5.348130 -0.000001 -0.000004 -59.520000 19.044500 -22.204100 -24.328900 0.000322 -0.000009 -3.102640 -3.294760 -43.305300 -22.291500 -0.000108 -0.000004 7.497580 5.426660 -3.824660 -2.192480 -6.469440 -0.000000 -176.313000 -4.518260 -20.775300 39.081100 -0.000007 -0.000012 0.069426 -0.146582 25.343500 40.985400 -0.000006 -0.000013 -9.666280 15.154700 -54.523000 11.754300 -0.000000 0.000003 0.001737 0.037752 -15.045300 -2.192510 6.469440 -0.000001 -178.767000 4.763840 -178.621000 -39.081100 -0.002282 -0.040193 0.007524 -0.014198 16.466400 -40.985400 0.000008 0.000006 -3.371260 1.407310 -62.561900 -11.754300 -0.000006 -0.000006 0.002410 0.068983 -13.775300
0.000000 0.000000 0.000000 0.000000 0.000000 -0.000000 189.541000 94.916400 -101.419000 87.922800 1.458160 -2.752390 15.735700 0.000005 -0.000001 134.339000 86.903800 -133.440000 8.984550 -0.406207 -0.000000 -3.374110 4.238440 1.922970 16.377300 -0.000001 -0.000001 -0.299830 1.100860 -0.844308 6.456720 -0.000001 -0.000000 7.094300 -0.786925 -0.065297 12.994200 -0.242716 4.980390 -91.717200 4.329310 -68.339700 5.348090 -0.000007 -0.000001 -46.591800 -20.112600 19.578300 24.328600 0.000019 0.000005 2.484230 11.655500 -12.119900 22.291600 -0.000001 0.000005 -0.276620 5.038200 6.464350 12.994500 -0.242716 -4.980390 89.797300 0.717872 -74.232500 -5.348130 -0.000001 -0.000004 -57.879100 17.499200 -25.927000 -24.328900 0.000322 -0.000009 -3.627340 -3.416480 -46.760000 -22.291500 -0.000108 -0.000004 6.209500 5.410810 -3.290350 -2.192480 -6.469440 -0.000000 -176.657000 -6.965240 -18.080600 39.081100 -0.000007 -0.000012 0.023589 -0.173150 7.758010 40.985400 -0.000006 -0.000013 -9.287420 18.480700 -53.818400 11.754300 -0.000000 0.000003 0.001892 0.042804 -14.840400 -2.192510 6.469440 -0.000001 -178.606000 6.986450 -176.463000 -39.081100 -0.002282 -0.040193 0.004164 -0.003058 15.251900 -40.985400 0.000008 0.000006 -2.409010 3.567130 -61.898000 -11.754300 -0.000006 -0.000006 0.001790 0.039413 -14.974400
0.000000 0.000000 0.000000 0.000000 0.000000 -0.000000 189.950000 93.985000 -98.482000 87.166000 1.117200 -2.594830 15.735700 0.000005 -0.000001 134.245000 86.638300 -133.043000 8.984550 -0.406207 -0.000000 -3.000920 4.576200 2.525950 16.377300 -0.000001 -0.000001 -0.739499 1.117800 -1.110340 6.456720 -0.000001 -0.000000 6.762510 -1.130610 -0.400028 12.994200 -0.242716 4.980390 -91.518400 3.884550 -68.630500 5.348090 -0.000007 -0.000001 -44.258400 -23.182500 20.840000 24.328600 0.000019 0.000005 2.395590 11.672600 -11.681700 22.291600 -0.000001 0.000005 10.576100 4.926530 8.753940 12.994500 -0.242716 -4.980390 89.859200 0.506475 -74.466600 -5.348130 -0.000001 -0.000004 -56.159300 15.698400 -29.250200 -24.328900 0.000322 -0.000009 -3.472680 -2.946230 -49.727700 -22.291500 -0.000108 -0.000004 6.259970 5.389780 -2.608290 -2.192480 -6.469440 -0.000000 -176.124000 -7.169140 -20.910700 39.081100 -0.000007 -0.000012 -0.002753 0.042566 3.700070 40.985400 -0.000006 -0.000013 -11.787100 19.028300 -58.527400 11.754300 -0.000000 0.000003 0.001957 0.045098 -14.747400 -2.192510 6.469440 -0.000001 -178.638000 7.970390 -174.758000 -39.081100 -0.002282 -0.040193 -0.005765 0.030981 16.356700 -40.985400 0.000008 0.000006 -2.345910 4.765760 -63.542200 -11.754300 -0.000006 -0.000006 0.000606 0.010917 -16.130600
0.000000 0.000000 0.000000 0.000000 0.000000 -0.000000 190.446000 92.798400 -95.382300 87.128100 1.579090 -2.677790 15.735700 0.000005 -0.000001 129.806000 86.621900 -128.553000 8.984550 -0.406207 -0.000000 -2.623580 4.210250 2.604210 16.377300 -0.000001 -0.000001 -1.089670 1.185140 -1.348000 6.456720 -0.000001 -0.000000 5.938020 -1.115660 -0.442535 12.994200 -0.242716 4.980390 -91.705200 4.533230 -69.359400 5.348090 -0.000007 -0.000001 -42.115300 -25.132500 20.983500 24.328600 0.000019 0.000005 1.518030 9.017620 -9.588850 22.291600 -0.000001 0.000005 22.475900 4.734700 12.447700 12.994500 -0.242716 -4.980390 89.665700 1.234640 -74.847500 -5.348130 -0.000001 -0.000004 -55.242300 13.296600 -31.641900 -24.328900 0.000322 -0.000009 -3.221860 -2.506660 -52.145800 -22.291500 -0.000108 -0.000004 7.356000 5.391060 -2.649680 -2.192480 -6.469440 -0.000000 -175.644000 -4.125080 -23.285300 39.081100 -0.000007 -0.000012 -0.002749 0.077279 2.036730 40.985400 -0.000006 -0.000013 -6.965200 15.204700 -63.156500 11.754300 -0.000000 0.000003 0.001868 0.041994 -14.873300 -2.192510 6.469440 -0.000001 -179.106000 8.382940 -173.518000 -39.081100 -0.002282 -0.040193 -0.016968 0.060980 18.406300 -40.985400 0.000008 0.000006 -2.523280 4.379140 -66.208000 -11.754300 -0.000006 -0.000006 -0.001205 -0.018272 -17.316100
0.000000 0.000000 0.000000 0.000000 0.000000 -0.000000 190.936000 91.417400 -91.715000 86.894500 1.812400 -2.765850 15.735700 0.000005 -0.000001 127.578000 86.659700 -126.296000 8.984550 -0.406207 -0.000000 -2.516930 3.957790 2.651040 16.377300 -0.000001 -0.000001 -1.346640 1.146210 -1.084420 6.456720 -0.000001 -0.000000 5.346500 -0.890377 -0.200156 12.994200 -0.242716 4.980390 -92.015400 5.541260 -69.976200 5.348090 -0.000007 -0.000001 -40.845600 -25.662800 19.805600 24.328600 0.000019 0.000005 0.519043 4.706970 -6.277310 22.291600 -0.000001 0.000005 32.248900 4.557110 15.608500 12.994500 -0.242716 -4.980390 89.487700 1.934890 -75.166500 -5.348130 -0.000001 -0.000004 -56.663600 10.892100 -31.638200 -24.328900 0.000322 -0.000009 -3.513550 -2.485880 -54.751800 -22.291500 -0.000108 -0.000004 9.074080 5.408760 -3.216190 -2.192480 -6.469440 -0.000000 -175.357000 -4.063550 -25.709300 39.081100 -0.000007 -0.000012 -0.002093 0.020728 5.764200 40.985400 -0.000006 -0.000013 -8.116440 11.725000 -63.870300 11.754300 -0.000000 0.000003 0.002000 0.046710 -14.682000 -2.192510 6.469440 -0.000001 -179.373000 8.310040 -172.146000 -39.081100 -0.002282 -0.040193 -0.026915 0.079261 20.880100 -40.985400 0.000008 0.000006 -2.543140 3.920590 -68.909000 -11.754300 -0.000006 -0.000006 -0.004478 -0.056325 -18.864500
